<mxfile host="Electron" agent="Mozilla/5.0 (Macintosh; Intel Mac OS X 10_15_7) AppleWebKit/537.36 (KHTML, like Gecko) draw.io/26.1.1 Chrome/132.0.6834.210 Electron/34.3.3 Safari/537.36" version="26.1.1">
  <diagram name="Page-1" id="Pt6bZKsJoHhe15BW6kul">
    <mxGraphModel dx="1114" dy="878" grid="1" gridSize="10" guides="1" tooltips="1" connect="1" arrows="1" fold="1" page="1" pageScale="1" pageWidth="827" pageHeight="1169" math="0" shadow="0">
      <root>
        <mxCell id="0" />
        <mxCell id="1" parent="0" />
        <mxCell id="4V9h3K9xKf_b1IwiSmPG-12" value="메인 스레드" style="rounded=1;whiteSpace=wrap;html=1;fontStyle=1;verticalAlign=top;" vertex="1" parent="1">
          <mxGeometry x="520" y="150" width="240" height="140" as="geometry" />
        </mxCell>
        <mxCell id="4V9h3K9xKf_b1IwiSmPG-13" value="CoroutineDispatcher" style="rounded=1;whiteSpace=wrap;html=1;fontStyle=1;verticalAlign=top;" vertex="1" parent="1">
          <mxGeometry x="200" y="100" width="280" height="250" as="geometry" />
        </mxCell>
        <mxCell id="4V9h3K9xKf_b1IwiSmPG-14" value="작업 대기열" style="rounded=1;whiteSpace=wrap;html=1;fontStyle=1;verticalAlign=top;" vertex="1" parent="1">
          <mxGeometry x="220" y="150" width="240" height="170" as="geometry" />
        </mxCell>
        <mxCell id="4V9h3K9xKf_b1IwiSmPG-24" style="edgeStyle=orthogonalEdgeStyle;rounded=0;orthogonalLoop=1;jettySize=auto;html=1;entryX=1;entryY=0.5;entryDx=0;entryDy=0;dashed=1;endArrow=block;endFill=1;" edge="1" parent="1" source="4V9h3K9xKf_b1IwiSmPG-15" target="4V9h3K9xKf_b1IwiSmPG-23">
          <mxGeometry relative="1" as="geometry" />
        </mxCell>
        <mxCell id="4V9h3K9xKf_b1IwiSmPG-15" value="launch 코루틴&lt;div&gt;&lt;b&gt;CoroutineStart.UNDISPATCHED&lt;/b&gt;&lt;/div&gt;" style="rounded=0;whiteSpace=wrap;html=1;fillColor=#d5e8d4;strokeColor=none;opacity=40;" vertex="1" parent="1">
          <mxGeometry x="540" y="210" width="200" height="50" as="geometry" />
        </mxCell>
        <mxCell id="4V9h3K9xKf_b1IwiSmPG-16" value="일시 중단 후 재개" style="text;html=1;align=center;verticalAlign=middle;whiteSpace=wrap;rounded=0;fontColor=#FF3333;" vertex="1" parent="1">
          <mxGeometry x="471" y="289" width="110" height="30" as="geometry" />
        </mxCell>
        <mxCell id="4V9h3K9xKf_b1IwiSmPG-23" value="launch 코루틴&lt;div&gt;&lt;b&gt;CoroutineStart.UNDISPATCHED&lt;/b&gt;&lt;/div&gt;" style="rounded=0;whiteSpace=wrap;html=1;fillColor=#d5e8d4;strokeColor=none;" vertex="1" parent="1">
          <mxGeometry x="240" y="250" width="200" height="50" as="geometry" />
        </mxCell>
      </root>
    </mxGraphModel>
  </diagram>
</mxfile>
